<svg preserveAspectRatio="none" overflow="visible" style="display: block;" width="17.7049" height="17.7049" viewBox="0 0 17.7049 17.7049" fill="none" xmlns="http://www.w3.org/2000/svg">
<g id="material-symbols-light:star-rounded">
<path id="Vector" d="M8.85247 11.8786L6.17461 13.4956C6.09592 13.5345 6.02288 13.5502 5.95551 13.5428C5.88862 13.535 5.82346 13.5119 5.76002 13.4735C5.69608 13.4341 5.64788 13.3786 5.61543 13.3068C5.58297 13.235 5.58002 13.1565 5.60657 13.0714L6.3192 10.0395L3.96223 7.99603C3.89583 7.94193 3.85206 7.87726 3.83092 7.80202C3.80977 7.72677 3.81444 7.65472 3.84493 7.58587C3.87543 7.51702 3.916 7.46046 3.96665 7.4162C4.0178 7.37341 4.08665 7.34439 4.17321 7.32915L7.28338 7.05767L8.49616 4.18652C8.52961 4.10538 8.5778 4.04685 8.64075 4.01095C8.7037 3.97505 8.77428 3.9571 8.85247 3.9571C8.93067 3.9571 9.00149 3.97505 9.06493 4.01095C9.12838 4.04685 9.17633 4.10538 9.20879 4.18652L10.4216 7.05767L13.531 7.32915C13.618 7.3439 13.6871 7.37316 13.7383 7.41693C13.7894 7.46021 13.8303 7.51652 13.8608 7.58587C13.8908 7.65472 13.8952 7.72677 13.874 7.80202C13.8529 7.87726 13.8091 7.94193 13.7427 7.99603L11.3858 10.0395L12.0984 13.0714C12.1259 13.1555 12.1232 13.2337 12.0903 13.306C12.0573 13.3783 12.0089 13.4339 11.9449 13.4728C11.882 13.5121 11.8168 13.5355 11.7494 13.5428C11.6826 13.5502 11.6098 13.5345 11.5311 13.4956L8.85247 11.8786Z" fill="#DBAE32"/>
</g>
</svg>
